<?xml version="1.0" encoding="UTF-8"?>
<svg version="1.1" xmlns="http://www.w3.org/2000/svg" width="500" height="500">
<path d="M0 0 C165 0 330 0 500 0 C500 165 500 330 500 500 C335 500 170 500 0 500 C0 335 0 170 0 0 Z " fill="#FEFEFE" transform="translate(0,0)"/>
<path d="M0 0 C155.76 0 311.52 0 472 0 C472 1.32 472 2.64 472 4 C316.24 4 160.48 4 0 4 C0 2.68 0 1.36 0 0 Z " fill="#171717" transform="translate(14,267)"/>
<path d="M0 0 C6.001875 -0.0928125 6.001875 -0.0928125 12.125 -0.1875 C13.37555176 -0.21481201 14.62610352 -0.24212402 15.91455078 -0.27026367 C26.36355608 -0.34854283 26.36355608 -0.34854283 31 3 C33.68186667 7.0228 33.57140016 10.27528823 33 15 C31.625 17.5625 31.625 17.5625 30 19 C29.34 19 28.68 19 28 19 C28 19.66 28 20.32 28 21 C28.7425 21.226875 29.485 21.45375 30.25 21.6875 C33.69657413 23.33245584 35.06400384 24.70163617 37 28 C37.81972887 34.35289872 36.82138744 37.8712958 33 43 C28.69667272 45.63738725 25.52200975 46.36460014 20.5078125 46.29296875 C19.4264502 46.28547607 18.34508789 46.2779834 17.23095703 46.27026367 C15.87599121 46.24295166 14.52102539 46.21563965 13.125 46.1875 C8.79375 46.125625 4.4625 46.06375 0 46 C0 30.82 0 15.64 0 0 Z " fill="#42C0F9" transform="translate(212,190)"/>
<path d="M0 0 C2.31 0.33 4.62 0.66 7 1 C5.94124926 4.40312738 4.99097846 7.01353231 3 10 C3.99 11.485 3.99 11.485 5 13 C5.4606067 17.97455239 5.16781812 21.06753613 2 25 C-2.59333122 29.16270641 -8.17648923 28.27536741 -14 28 C-13.67 29.32 -13.34 30.64 -13 32 C-12.13117188 32.03738281 -11.26234375 32.07476562 -10.3671875 32.11328125 C2.8683274 32.8683274 2.8683274 32.8683274 8 38 C8.70499315 41.71049027 8.77409539 45.42190853 7.08984375 48.85546875 C4.2162939 52.59755135 1.43222326 53.81126051 -3 55 C-10.99713379 55.85329219 -17.23092011 55.47014709 -24 51 C-26 48 -26 48 -25.8125 44.4375 C-25 41 -25 41 -22 39 C-21.01 39 -20.02 39 -19 39 C-19.495 38.46375 -19.99 37.9275 -20.5 37.375 C-22.37489544 34.40641555 -22.23501425 32.44687573 -22 29 C-20.35 28.34 -18.7 27.68 -17 27 C-17 26.34 -17 25.68 -17 25 C-17.9590625 24.566875 -17.9590625 24.566875 -18.9375 24.125 C-21 23 -21 23 -22 21 C-22.41948626 17.6141466 -22.49414522 14.37931569 -22 11 C-19.5625 7.9375 -19.5625 7.9375 -17 6 C-16.67 5.67 -16.34 5.34 -16 5 C-13.85605481 4.9008243 -11.70873268 4.8702985 -9.5625 4.875 C-7.80099609 4.87113281 -7.80099609 4.87113281 -6.00390625 4.8671875 C-3 5 -3 5 -1 6 C-0.67 4.02 -0.34 2.04 0 0 Z " fill="#090909" transform="translate(141,196)"/>
<path d="M0 0 C4.53538865 2.11130161 7.1653623 4.90552332 10 9 C11.88042493 14.6412748 11.780465 20.78183631 9.8125 26.375 C6.27624657 31.49647049 3.19580945 34.66364894 -3 36 C-8.43101205 36.60949233 -12.33865027 36.10756648 -17 33 C-21.87149429 28.01778993 -23.7092856 24.00404879 -24.375 17.125 C-24.18727199 10.98864066 -21.3440089 6.69769545 -17.625 2 C-12.72547823 -1.70604852 -5.75020741 -0.73755629 0 0 Z " fill="#41C0F9" transform="translate(306,201)"/>
<path d="M0 0 C0.52207031 0.28875 1.04414062 0.5775 1.58203125 0.875 C1.58203125 5.14326873 1.20589612 5.81382432 -1.41796875 8.875 C-3.41796875 7.875 -5.41796875 6.875 -7.41796875 5.875 C-9.08142457 5.75417466 -10.75017466 5.6996206 -12.41796875 5.6875 C-13.30484375 5.67332031 -14.19171875 5.65914062 -15.10546875 5.64453125 C-17.61316859 5.64786874 -17.61316859 5.64786874 -19.41796875 7.875 C-19.49069437 10.42960214 -19.49069437 10.42960214 -18.41796875 12.875 C-15.03171911 14.51138872 -11.56360996 15.37955196 -7.91796875 16.25 C-2.88158508 17.5989103 0.91463513 19.05644783 3.6796875 23.73046875 C5.23065666 27.41653832 5.11410951 30.95262825 4.58203125 34.875 C2.4040986 39.68460126 -0.42563912 42.08728293 -5.14453125 44.18359375 C-11.39959461 46.08590683 -17.68506542 45.39428274 -23.65625 42.875 C-26.45648953 41.28550705 -28.31793032 39.30316944 -30.41796875 36.875 C-29.21415427 34.38138429 -27.96368153 32.19356917 -26.41796875 29.875 C-23.87212394 31.05000529 -21.86242432 32.29474468 -19.60546875 34 C-15.81444491 36.23001402 -13.74875897 36.43639873 -9.41796875 35.875 C-6.89756448 34.92326062 -6.89756448 34.92326062 -5.41796875 32.875 C-5.08399088 29.74913125 -5.08399088 29.74913125 -5.41796875 26.875 C-6.11921875 26.69324219 -6.82046875 26.51148438 -7.54296875 26.32421875 C-24.62007543 21.79971358 -24.62007543 21.79971358 -28.41796875 15.875 C-30.05188602 12.60716546 -30.08993409 9.3933091 -29.41796875 5.875 C-22.93888851 -5.32206821 -10.61481436 -5.35388185 0 0 Z " fill="#090909" transform="translate(47.41796875,192.125)"/>
<path d="M0 0 C1.1034375 -0.00773438 2.206875 -0.01546875 3.34375 -0.0234375 C8.08205099 0.57471436 10.61435177 2.41754245 13.8125 5.875 C15.5 9.375 15.5 9.375 15.5 20.375 C7.91 20.375 0.32 20.375 -7.5 20.375 C-5.84922098 24.12670424 -5.84922098 24.12670424 -3.5 27.375 C2.04022656 27.73829354 4.09057606 27.72008023 8.5 24.375 C11.1875 24.9375 11.1875 24.9375 13.5 26.375 C14.3125 28.5 14.3125 28.5 14.5 30.375 C9.419633 34.72960029 5.479554 36.912749 -1.3828125 36.6796875 C-6.9109836 35.88412044 -11.14719333 33.40476072 -14.5 28.9375 C-17.54041771 23.40476708 -17.45335218 17.49170758 -16.5 11.375 C-13.50065778 3.51549917 -8.46509956 -0.05933481 0 0 Z " fill="#41C0F9" transform="translate(407.5,200.625)"/>
<path d="M0 0 C2.97 0 5.94 0 9 0 C9.33 5.61 9.66 11.22 10 17 C11.32 16.01 12.64 15.02 14 14 C19.14784445 13.14841917 23.61650697 13.16990418 28.125 15.875 C31.31910192 19.49498218 31.11838825 21.77070159 31.09765625 26.5390625 C31.09443359 27.84101563 31.09121094 29.14296875 31.08789062 30.484375 C31.07953466 31.86458399 31.07106971 33.24479232 31.0625 34.625 C31.05748501 36.01301926 31.0529221 37.40104022 31.04882812 38.7890625 C31.03700976 42.19275132 31.02053434 45.59635439 31 49 C28.36 49 25.72 49 23 49 C22.98018066 48.2886792 22.96036133 47.5773584 22.93994141 46.84448242 C22.84475133 43.62511184 22.73504771 40.4063955 22.625 37.1875 C22.5940625 36.06794922 22.563125 34.94839844 22.53125 33.79492188 C22.49257813 32.72177734 22.45390625 31.64863281 22.4140625 30.54296875 C22.36693115 29.0583313 22.36693115 29.0583313 22.31884766 27.54370117 C22.16226567 24.75924906 22.16226567 24.75924906 20 22 C16.54230809 21.41657647 16.54230809 21.41657647 13 22 C10.03222537 24.9639176 9.60246281 27.31133881 9.48828125 31.421875 C9.45283203 32.44667969 9.41738281 33.47148437 9.38085938 34.52734375 C9.34702148 36.12255859 9.34702148 36.12255859 9.3125 37.75 C9.27833984 38.82894531 9.24417969 39.90789062 9.20898438 41.01953125 C9.12659337 43.67958377 9.05741355 46.33931035 9 49 C6.03 49 3.06 49 0 49 C0 32.83 0 16.66 0 0 Z " fill="#3DBFF9" transform="translate(352,187)"/>
<path d="M0 0 C2.64 0 5.28 0 8 0 C8.33 5.94 8.66 11.88 9 18 C10.65 16.68 12.3 15.36 14 14 C17.74123611 13.22057581 21.24156819 13.32844837 25 14 C27.89683868 16.2015974 29.39297231 17.78594462 31 21 C31.08543895 23.10528933 31.10714725 25.21331157 31.09765625 27.3203125 C31.09443359 28.57714844 31.09121094 29.83398438 31.08789062 31.12890625 C31.07951172 32.44761719 31.07113281 33.76632813 31.0625 35.125 C31.05748489 36.46484211 31.05292201 37.804686 31.04882812 39.14453125 C31.03701086 42.42973206 31.02053617 45.71484397 31 49 C28.03 49 25.06 49 22 49 C21.67 40.09 21.34 31.18 21 22 C13.69137249 21.22833733 13.69137249 21.22833733 11.0625 23.375 C9.09089303 26.39039889 8.82768828 28.42603413 8.68359375 32.0078125 C8.64169922 32.99394531 8.59980469 33.98007813 8.55664062 34.99609375 C8.51732422 36.02863281 8.47800781 37.06117188 8.4375 38.125 C8.39431641 39.16527344 8.35113281 40.20554688 8.30664062 41.27734375 C8.2003712 43.85142528 8.09833417 46.42560508 8 49 C5.36 49 2.72 49 0 49 C0 32.83 0 16.66 0 0 Z " fill="#040404" transform="translate(156,187)"/>
<path d="M0 0 C2.97 0 5.94 0 9 0 C9.33 1.32 9.66 2.64 10 4 C10.53753906 3.35160156 11.07507813 2.70320312 11.62890625 2.03515625 C15.29565306 -1.11208443 18.4821009 -0.6086468 23.140625 -0.4609375 C26 0 26 0 29.1875 2.3125 C31.95273422 6.41267488 32.12038027 9.35900169 32.09765625 14.19921875 C32.09443359 15.40771484 32.09121094 16.61621094 32.08789062 17.86132812 C32.07532227 19.7552832 32.07532227 19.7552832 32.0625 21.6875 C32.05798828 22.96173828 32.05347656 24.23597656 32.04882812 25.54882812 C32.03702873 28.69926564 32.02056597 31.84960949 32 35 C29.03 35 26.06 35 23 35 C22.67 26.09 22.34 17.18 22 8 C13.72375426 7.05021173 13.72375426 7.05021173 10.96948242 9.66113281 C9.84139693 12.38262841 9.57010332 14.4762803 9.48828125 17.421875 C9.45283203 18.44667969 9.41738281 19.47148437 9.38085938 20.52734375 C9.34702148 22.12255859 9.34702148 22.12255859 9.3125 23.75 C9.27833984 24.82894531 9.24417969 25.90789062 9.20898438 27.01953125 C9.12659337 29.67958377 9.05741355 32.33931035 9 35 C6.03 35 3.06 35 0 35 C0 23.45 0 11.9 0 0 Z " fill="#090909" transform="translate(78,201)"/>
<path d="M0 0 C0.99 1.485 0.99 1.485 2 3 C1.01 4.32 0.02 5.64 -1 7 C-2.0209375 6.7834375 -2.0209375 6.7834375 -3.0625 6.5625 C-8.99071506 5.40429491 -8.99071506 5.40429491 -15 5 C-15 6.65 -15 8.3 -15 10 C-14.18015625 10.19335938 -13.3603125 10.38671875 -12.515625 10.5859375 C-11.43796875 10.84632813 -10.3603125 11.10671875 -9.25 11.375 C-8.18265625 11.63023437 -7.1153125 11.88546875 -6.015625 12.1484375 C-1.55606153 13.40774428 0.39059579 14.08589369 3 18 C3.54543879 21.06594015 3.53376742 23.93218522 3 27 C0.05437849 30.84567253 -3.22127675 33.5508079 -8.078125 34.3359375 C-13.71443401 34.43730996 -18.456274 33.53037703 -23 30 C-24.22265625 27.859375 -24.22265625 27.859375 -25 26 C-23.68 24.68 -22.36 23.36 -21 22 C-18 23.5 -18 23.5 -15 25 C-13.45976004 25.06950541 -11.91665012 25.08452357 -10.375 25.0625 C-9.55773437 25.05347656 -8.74046875 25.04445312 -7.8984375 25.03515625 C-7.27195312 25.02355469 -6.64546875 25.01195312 -6 25 C-6.3389356 23.02894762 -6.3389356 23.02894762 -7 21 C-9.78783982 19.5240848 -12.41203925 18.91170587 -15.5 18.25 C-20.13275707 16.5954439 -21.37445764 15.13721827 -24 11 C-24.625 8 -24.625 8 -24 5 C-17.76344414 -4.26574014 -9.47612915 -5.01677426 0 0 Z " fill="#42C0F9" transform="translate(480,203)"/>
<path d="M0 0 C0 2.64 0 5.28 0 8 C3.3 8 6.6 8 10 8 C10 10.31 10 12.62 10 15 C6.7 15 3.4 15 0 15 C0.33 21.27 0.66 27.54 1 34 C2.65 34.33 4.3 34.66 6 35 C7.33542939 35.32483418 8.66961551 35.6550855 10 36 C10.33 37.98 10.66 39.96 11 42 C6.85747753 44.00849574 3.5849842 44.48262992 -1 44 C-4.2015767 42.3690081 -6.33984376 41.13804711 -8.16015625 38 C-9.40241717 33.56252843 -9.20919893 29.26986478 -9.125 24.6875 C-9.11597656 23.75615234 -9.10695313 22.82480469 -9.09765625 21.86523438 C-9.07418263 19.5765564 -9.04134729 17.28841328 -9 15 C-10.65 15 -12.3 15 -14 15 C-14 12.69 -14 10.38 -14 8 C-12.35 8 -10.7 8 -9 8 C-9 5.69 -9 3.38 -9 1 C-5.8035914 -0.06546953 -3.34252724 -0.07427838 0 0 Z " fill="#3FBFF9" transform="translate(335,193)"/>
<path d="M0 0 C2.64 0 5.28 0 8 0 C8 1.65 8 3.3 8 5 C8.66 5 9.32 5 10 5 C10.309375 4.360625 10.61875 3.72125 10.9375 3.0625 C12 1 12 1 13 0 C14.51928038 -0.07179964 16.04167482 -0.08392007 17.5625 -0.0625 C18.38878906 -0.05347656 19.21507812 -0.04445312 20.06640625 -0.03515625 C20.70449219 -0.02355469 21.34257812 -0.01195312 22 0 C21.125 5.75 21.125 5.75 20 8 C17.6954948 8.63817067 15.38503677 9.02037323 13.03125 9.4375 C12.02578125 9.7159375 12.02578125 9.7159375 11 10 C9.74161443 12.51677113 9.79181027 14.41293288 9.68359375 17.2265625 C9.64169922 18.2578125 9.59980469 19.2890625 9.55664062 20.3515625 C9.49766602 21.97191406 9.49766602 21.97191406 9.4375 23.625 C9.39431641 24.71296875 9.35113281 25.8009375 9.30664062 26.921875 C9.2003547 29.6144517 9.09831943 32.30712253 9 35 C6.03 35 3.06 35 0 35 C0 23.45 0 11.9 0 0 Z " fill="#40C0F9" transform="translate(431,201)"/>
<path d="M0 0 C2.64 0 5.28 0 8 0 C8 1.65 8 3.3 8 5 C8.66 5 9.32 5 10 5 C10.309375 4.360625 10.61875 3.72125 10.9375 3.0625 C12 1 12 1 13 0 C14.51928038 -0.07179964 16.04167482 -0.08392007 17.5625 -0.0625 C18.38878906 -0.05347656 19.21507812 -0.04445312 20.06640625 -0.03515625 C20.70449219 -0.02355469 21.34257812 -0.01195312 22 0 C21.125 5.75 21.125 5.75 20 8 C17.6954948 8.63817067 15.38503677 9.02037323 13.03125 9.4375 C12.02578125 9.7159375 12.02578125 9.7159375 11 10 C9.74161443 12.51677113 9.79181027 14.41293288 9.68359375 17.2265625 C9.64169922 18.2578125 9.59980469 19.2890625 9.55664062 20.3515625 C9.49766602 21.97191406 9.49766602 21.97191406 9.4375 23.625 C9.39431641 24.71296875 9.35113281 25.8009375 9.30664062 26.921875 C9.2003547 29.6144517 9.09831943 32.30712253 9 35 C6.03 35 3.06 35 0 35 C0 23.45 0 11.9 0 0 Z " fill="#40C0F9" transform="translate(257,201)"/>
<path d="M0 0 C2.36497439 1.86708505 3.66030715 3.32061431 5 6 C5.3753005 11.62950743 5.11070641 15.09465528 2 20 C-1.09173752 21.54586876 -3.59429552 21.29359521 -7 21 C-9.99353522 18.80012448 -10.89681887 17.60087832 -11.53125 13.90625 C-11.5209375 12.7821875 -11.510625 11.658125 -11.5 10.5 C-11.51546875 8.81390625 -11.51546875 8.81390625 -11.53125 7.09375 C-10.38368478 0.41087018 -6.27998419 -0.8971406 0 0 Z " fill="#F8FCFE" transform="translate(303,208)"/>
<path d="M0 0 C2.64 0 5.28 0 8 0 C8 11.55 8 23.1 8 35 C5.36 35 2.72 35 0 35 C0 23.45 0 11.9 0 0 Z " fill="#000000" transform="translate(60,201)"/>
<path d="M0 0 C2.0625 -0.061875 4.125 -0.12375 6.25 -0.1875 C7.99023438 -0.23970703 7.99023438 -0.23970703 9.765625 -0.29296875 C13.26454845 0.02396272 14.62920876 0.43931529 17 3 C17.53125 4.9375 17.53125 4.9375 17.5 7 C17.5103125 7.680625 17.520625 8.36125 17.53125 9.0625 C17 11 17 11 15.390625 12.73828125 C12.20598914 14.41906129 9.82969235 14.29489077 6.25 14.1875 C4.1875 14.125625 2.125 14.06375 0 14 C0 9.38 0 4.76 0 0 Z " fill="#FAFDFE" transform="translate(222,215)"/>
<path d="M0 0 C10.33431323 -0.36908262 10.33431323 -0.36908262 13.33203125 1.29296875 C15 3 15 3 15.4375 6.5 C15 10 15 10 13.9375 11.9375 C10.98831309 13.55479605 8.29132441 13.18630138 5 13 C5 15.64 5 18.28 5 21 C3.35 21 1.7 21 0 21 C0 14.07 0 7.14 0 0 Z " fill="#1E1E1E" transform="translate(305,286)"/>
<path d="M0 0 C3.32878632 2.46040728 4.79301948 3.89610387 5.5625 8 C4.84202557 11.8425303 3.99097304 13.45767292 1 16 C-1.95424795 16.63008105 -3.90655222 16.39281877 -7 16 C-9.32433225 14.35183713 -9.91856963 13.44603302 -10.43359375 10.625 C-10.43488281 9.75875 -10.43617187 8.8925 -10.4375 8 C-10.45683594 7.13375 -10.47617188 6.2675 -10.49609375 5.375 C-10 3 -10 3 -8.15625 1.21875 C-5.15576831 -0.47717443 -3.39718029 -0.55464168 0 0 Z " fill="#0F0F0F" transform="translate(97,291)"/>
<path d="M0 0 C2.875 1.5625 2.875 1.5625 5 4 C5.52399488 8.19195902 5.44675919 11.46579228 3 15 C-0.09173752 16.54586876 -2.59429552 16.29359521 -6 16 C-8.4375 14.5 -8.4375 14.5 -10 12 C-10.81004807 7.92470662 -10.65700312 5.01077404 -8.375 1.5 C-5.25991849 -0.4674199 -3.62829011 -0.5923739 0 0 Z " fill="#0E0E0E" transform="translate(228,291)"/>
<path d="M0 0 C2.375 1.125 2.375 1.125 4 3 C4.25 6.1875 4.25 6.1875 4 9 C0.7 9 -2.6 9 -6 9 C-6 9.99 -6 10.98 -6 12 C-1.85906302 12.20970559 -1.85906302 12.20970559 2 11 C2.66 11.33 3.32 11.66 4 12 C3 15 3 15 1 16 C-6.23444976 16.57416268 -6.23444976 16.57416268 -9 14.5 C-10.42804058 10.92989856 -10.6908363 7.78795633 -10 4 C-7.29356525 -0.16374577 -4.81729865 -0.70252272 0 0 Z " fill="#252525" transform="translate(421,291)"/>
<path d="M0 0 C2.5 1.5 2.5 1.5 4 3 C3.67 3.99 3.34 4.98 3 6 C2.1646875 5.505 2.1646875 5.505 1.3125 5 C-1.35263324 3.84750995 -3.12393149 3.69725595 -6 4 C-8.60704898 6.60704898 -8.23905333 8.47338241 -8.265625 12.02734375 C-8.10382514 14.31952326 -8.10382514 14.31952326 -6 17 C-3.5 17.5 -3.5 17.5 -1 17 C-0.34 16.01 0.32 15.02 1 14 C2.32 14.33 3.64 14.66 5 15 C3.84826645 17.46800047 2.95216435 19.04783565 1 21 C-2.03704568 21.50421994 -4.95802594 21.45467228 -8 21 C-10.50160818 19.12379387 -11.61945652 17.76108697 -13 15 C-13.62286015 9.97262876 -13.77644356 6.21319306 -11 1.875 C-6.85757508 -0.71401558 -4.83799741 -0.61434888 0 0 Z " fill="#0B0B0B" transform="translate(62,286)"/>
<path d="M0 0 C2 2 2 2 2.1953125 4.6015625 C2.17210937 5.59929687 2.14890625 6.59703125 2.125 7.625 C2.10695313 8.62789063 2.08890625 9.63078125 2.0703125 10.6640625 C2.03550781 11.82035156 2.03550781 11.82035156 2 13 C2.66 13 3.32 13 4 13 C4 13.99 4 14.98 4 16 C3.030625 15.814375 2.06125 15.62875 1.0625 15.4375 C0.051875 15.293125 -0.95875 15.14875 -2 15 C-2.33 15.33 -2.66 15.66 -3 16 C-6 16.125 -6 16.125 -9 16 C-10 15 -10 15 -10.1875 12.0625 C-10 9 -10 9 -8 7 C-5.375 6.375 -5.375 6.375 -3 6 C-2.67 5.01 -2.34 4.02 -2 3 C-4.31 3.66 -6.62 4.32 -9 5 C-9 3.68 -9 2.36 -9 1 C-5.98675805 -0.50662097 -3.31713623 -0.17770373 0 0 Z " fill="#0D0D0D" transform="translate(351,291)"/>
<path d="M0 0 C1.93681161 -0.08107583 3.8745934 -0.13922475 5.8125 -0.1875 C6.89144531 -0.22230469 7.97039062 -0.25710937 9.08203125 -0.29296875 C12 0 12 0 13.86328125 1.35546875 C15.48797756 3.70597441 15.4189057 5.20729532 15 8 C13.86328125 9.64453125 13.86328125 9.64453125 12 11 C9.08203125 11.29296875 9.08203125 11.29296875 5.8125 11.1875 C4.72582031 11.16042969 3.63914063 11.13335937 2.51953125 11.10546875 C1.27236328 11.05326172 1.27236328 11.05326172 0 11 C0 7.37 0 3.74 0 0 Z " fill="#FBFDFE" transform="translate(222,197)"/>
<path d="M0 0 C10.625 -0.25 10.625 -0.25 14 2 C14.29296875 5.2578125 14.29296875 5.2578125 14.1875 9.125 C14.16042969 10.40632813 14.13335937 11.68765625 14.10546875 13.0078125 C14.07066406 13.99523437 14.03585937 14.98265625 14 16 C12.68 16 11.36 16 10 16 C9.67 12.04 9.34 8.08 9 4 C7.68 4.33 6.36 4.66 5 5 C4.67 8.63 4.34 12.26 4 16 C2.68 16 1.36 16 0 16 C0 10.72 0 5.44 0 0 Z " fill="#151515" transform="translate(376,291)"/>
<path d="M0 0 C2.475 0.495 2.475 0.495 5 1 C5.33 0.67 5.66 0.34 6 0 C8.9375 -0.1875 8.9375 -0.1875 12 0 C14 2 14 2 14.1953125 5.2578125 C14.16050781 7.17207031 14.16050781 7.17207031 14.125 9.125 C14.10695312 10.40632813 14.08890625 11.68765625 14.0703125 13.0078125 C14.04710937 13.99523437 14.02390625 14.98265625 14 16 C12.68 16 11.36 16 10 16 C9.67 12.04 9.34 8.08 9 4 C7.68 4.33 6.36 4.66 5 5 C4.67 8.63 4.34 12.26 4 16 C2.68 16 1.36 16 0 16 C0 10.72 0 5.44 0 0 Z " fill="#121212" transform="translate(123,291)"/>
<path d="M0 0 C1.60488281 -0.02126953 1.60488281 -0.02126953 3.2421875 -0.04296875 C6.125 0.1875 6.125 0.1875 9.125 2.1875 C8.55155063 5.05474686 8.2635485 6.0489515 6.125 8.1875 C3.375 8.453125 3.375 8.453125 0.125 8.4375 C-1.48375 8.44523438 -1.48375 8.44523438 -3.125 8.453125 C-5.875 8.1875 -5.875 8.1875 -7.875 6.1875 C-7.12658171 0.05047003 -5.95524506 0.03570291 0 0 Z " fill="#EDEDED" transform="translate(131.875,235.8125)"/>
<path d="M0 0 C1.32 0 2.64 0 4 0 C4 0.99 4 1.98 4 3 C5.32 3 6.64 3 8 3 C8 4.32 8 5.64 8 7 C6.68 7 5.36 7 4 7 C4 9.97 4 12.94 4 16 C5.32 16 6.64 16 8 16 C8 16.99 8 17.98 8 19 C5.125 19.125 5.125 19.125 2 19 C0 17 0 17 -0.1953125 14.3984375 C-0.17210937 13.40070313 -0.14890625 12.40296875 -0.125 11.375 C-0.10695312 10.37210937 -0.08890625 9.36921875 -0.0703125 8.3359375 C-0.03550781 7.17964844 -0.03550781 7.17964844 0 6 C-0.99 6 -1.98 6 -3 6 C-3 5.01 -3 4.02 -3 3 C-2.01 3 -1.02 3 0 3 C0 2.01 0 1.02 0 0 Z " fill="#171717" transform="translate(160,288)"/>
<path d="M0 0 C3.3 0 6.6 0 10 0 C10 1.32 10 2.64 10 4 C8.68 4.33 7.36 4.66 6 5 C5.67 8.63 5.34 12.26 5 16 C3.35 16 1.7 16 0 16 C0 10.72 0 5.44 0 0 Z " fill="#2F2F2F" transform="translate(188,291)"/>
<path d="M0 0 C3 0.25 3 0.25 5 2.25 C5.25 5.75 5.25 5.75 5 9.25 C3 11.25 3 11.25 0 11.5625 C-0.99 11.459375 -1.98 11.35625 -3 11.25 C-5.30163882 7.79754176 -5.34490322 6.30261287 -5 2.25 C-3 0.25 -3 0.25 0 0 Z " fill="#F7F7F7" transform="translate(132,206.75)"/>
<path d="M0 0 C1.9375 1.875 1.9375 1.875 3 4 C3 4.99 3 5.98 3 7 C-1.95 7 -6.9 7 -12 7 C-11 2 -11 2 -9.375 0.125 C-5.89022914 -1.52568093 -3.66368347 -0.9991864 0 0 Z " fill="#EEF9FE" transform="translate(412,208)"/>
<path d="M0 0 C1.32 0 2.64 0 4 0 C4 6.27 4 12.54 4 19 C4.66 19 5.32 19 6 19 C6 19.99 6 20.98 6 22 C1.125 21.125 1.125 21.125 0 20 C-0.08669432 18.5112814 -0.10703494 17.018555 -0.09765625 15.52734375 C-0.09443359 14.62822266 -0.09121094 13.72910156 -0.08789062 12.80273438 C-0.07951172 11.85720703 -0.07113281 10.91167969 -0.0625 9.9375 C-0.05798828 8.98810547 -0.05347656 8.03871094 -0.04882812 7.06054688 C-0.0370011 4.70696935 -0.02052025 2.35351523 0 0 Z " fill="#0C0C0C" transform="translate(446,285)"/>
<path d="M0 0 C1.32 0 2.64 0 4 0 C4 6.27 4 12.54 4 19 C4.66 19 5.32 19 6 19 C6 19.99 6 20.98 6 22 C1.125 21.125 1.125 21.125 0 20 C-0.08669432 18.5112814 -0.10703494 17.018555 -0.09765625 15.52734375 C-0.09443359 14.62822266 -0.09121094 13.72910156 -0.08789062 12.80273438 C-0.07951172 11.85720703 -0.07113281 10.91167969 -0.0625 9.9375 C-0.05798828 8.98810547 -0.05347656 8.03871094 -0.04882812 7.06054688 C-0.0370011 4.70696935 -0.02052025 2.35351523 0 0 Z " fill="#0C0C0C" transform="translate(254,285)"/>
<path d="M0 0 C3 0.25 3 0.25 5 2.25 C5.3125 5.25 5.3125 5.25 5 8.25 C1.77626323 10.39915785 0.73296326 10.63286803 -3 10.25 C-5 8.25 -5 8.25 -5.25 5.25 C-4.90584825 1.120179 -4.129821 0.34415175 0 0 Z " fill="#0B0B0B" transform="translate(64,186.75)"/>
<path d="M0 0 C4.55555556 0.55555556 4.55555556 0.55555556 6 2 C6.07271741 4.35313555 6.08370868 6.70833668 6.0625 9.0625 C6.05347656 10.35285156 6.04445313 11.64320313 6.03515625 12.97265625 C6.02355469 13.97167969 6.01195312 14.97070312 6 16 C4.68 16 3.36 16 2 16 C1.96261719 15.15695312 1.92523438 14.31390625 1.88671875 13.4453125 C1.82097656 12.34960938 1.75523437 11.25390625 1.6875 10.125 C1.62949219 9.03445313 1.57148438 7.94390625 1.51171875 6.8203125 C1.34285156 5.88960938 1.17398437 4.95890625 1 4 C0.01 3.34 -0.98 2.68 -2 2 C-1.34 1.34 -0.68 0.68 0 0 Z " fill="#070707" transform="translate(384,291)"/>
<path d="M0 0 C3.625 0.375 3.625 0.375 7 1 C6.47731534 3.76276177 5.89130413 6.3260876 5 9 C3.00045254 9.04254356 0.99958364 9.04080783 -1 9 C-2 8 -2 8 -2.1875 5.0625 C-2 2 -2 2 0 0 Z " fill="#151515" transform="translate(343,298)"/>
<path d="M0 0 C4.70588235 0.70588235 4.70588235 0.70588235 6 2 C6.1875 4.9375 6.1875 4.9375 6 8 C5.34 8.66 4.68 9.32 4 10 C1.375 9.625 1.375 9.625 -1 9 C-1.09765625 2.84765625 -1.09765625 2.84765625 -1 1 C-0.67 0.67 -0.34 0.34 0 0 Z " fill="#E8E8E8" transform="translate(92,294)"/>
<path d="M0 0 C3.53571429 0.53571429 3.53571429 0.53571429 5 2 C5.1875 4.9375 5.1875 4.9375 5 8 C4.34 8.66 3.68 9.32 3 10 C1.68 10 0.36 10 -1 10 C-2.38125018 7.23749964 -2.19079306 5.05268901 -2 2 C-1.34 1.34 -0.68 0.68 0 0 Z " fill="#F2F2F2" transform="translate(224,294)"/>
<path d="M0 0 C0.66 0 1.32 0 2 0 C2 0.66 2 1.32 2 2 C2.66 2 3.32 2 4 2 C3.67 6.29 3.34 10.58 3 15 C2.01 15 1.02 15 0 15 C0 10.05 0 5.1 0 0 Z " fill="#010101" transform="translate(124,292)"/>
<path d="M0 0 C1.98 0 3.96 0 6 0 C6.042721 1.66611905 6.04063832 3.33382885 6 5 C5 6 5 6 2.4375 6.0625 C1.2309375 6.0315625 1.2309375 6.0315625 0 6 C0 4.02 0 2.04 0 0 Z " fill="#F7F7F7" transform="translate(310,290)"/>
<path d="M0 0 C2.64 0 5.28 0 8 0 C7.34 1.32 6.68 2.64 6 4 C3.03 3.505 3.03 3.505 0 3 C0 2.01 0 1.02 0 0 Z " fill="#EEEEEE" transform="translate(415,300)"/>
<path d="M0 0 C-0.33 1.65 -0.66 3.3 -1 5 C-2.32 5 -3.64 5 -5 5 C-5 3.68 -5 2.36 -5 1 C-2 0 -2 0 0 0 Z " fill="#D5D5D5" transform="translate(350,299)"/>
<path d="M0 0 C1.32 0 2.64 0 4 0 C3.67 1.32 3.34 2.64 3 4 C1.35 4 -0.3 4 -2 4 C-1.34 2.68 -0.68 1.36 0 0 Z " fill="#DFDFDF" transform="translate(345,294)"/>
</svg>
